<?xml version="1.0" standalone="no"?>
<!DOCTYPE svg PUBLIC "-//W3C//DTD SVG 20010904//EN"
 "http://www.w3.org/TR/2001/REC-SVG-20010904/DTD/svg10.dtd">
<svg version="1.0" xmlns="http://www.w3.org/2000/svg"
 width="1800.000000pt" height="1800.000000pt" viewBox="0 0 1800.000000 1800.000000"
 preserveAspectRatio="xMidYMid meet">
<metadata>
Created by potrace 1.14, written by Peter Selinger 2001-2017
</metadata>
<g transform="translate(0.000000,1800.000000) scale(0.100000,-0.100000)"
fill="#000000" stroke="none">
<path d="M8609 17995 c-2 -2 -58 -6 -125 -9 -67 -3 -148 -8 -180 -11 -164 -13
-233 -20 -314 -30 -19 -2 -60 -7 -90 -10 -30 -4 -66 -8 -80 -10 -14 -2 -61 -9
-106 -15 -44 -6 -89 -12 -100 -14 -10 -2 -39 -7 -64 -11 -77 -13 -91 -15 -227
-40 -73 -13 -185 -36 -250 -51 -65 -14 -124 -27 -133 -29 -8 -2 -53 -13 -100
-25 -47 -12 -92 -23 -100 -25 -8 -2 -58 -15 -110 -30 -52 -14 -103 -28 -113
-30 -62 -14 -471 -148 -622 -203 -202 -75 -447 -175 -570 -232 -33 -15 -91
-42 -130 -60 -81 -37 -367 -180 -440 -220 -123 -68 -233 -129 -262 -146 -406
-238 -730 -459 -1085 -741 -135 -107 -342 -280 -404 -338 -6 -5 -55 -50 -109
-100 -128 -118 -376 -365 -490 -489 -49 -54 -103 -113 -120 -130 -50 -55 -176
-203 -319 -376 -15 -19 -92 -120 -171 -225 -719 -960 -1235 -2038 -1524 -3190
-22 -88 -42 -171 -45 -185 -2 -14 -12 -56 -21 -95 -9 -38 -18 -81 -20 -95 -2
-14 -10 -54 -18 -90 -8 -36 -18 -87 -23 -115 -4 -27 -8 -54 -10 -60 -1 -5 -5
-28 -8 -50 -4 -22 -13 -78 -21 -125 -8 -47 -17 -107 -20 -135 -2 -27 -7 -61
-9 -75 -10 -55 -29 -231 -41 -370 -4 -41 -8 -93 -10 -115 -15 -177 -20 -336
-20 -695 0 -228 4 -464 8 -525 5 -60 10 -137 12 -170 7 -98 28 -315 40 -410 3
-22 8 -58 11 -80 3 -22 7 -51 9 -65 2 -14 7 -45 10 -70 3 -25 10 -70 15 -100
5 -30 12 -73 15 -95 3 -22 10 -60 15 -85 5 -25 12 -56 14 -70 9 -60 58 -298
66 -325 5 -16 11 -41 14 -55 2 -14 12 -54 21 -90 9 -36 19 -74 21 -86 12 -63
122 -439 182 -619 217 -651 475 -1209 846 -1825 177 -295 551 -826 701 -996 6
-7 24 -29 42 -50 17 -22 39 -49 50 -61 10 -11 34 -41 53 -64 19 -24 45 -54 57
-67 12 -13 50 -55 85 -94 183 -207 413 -438 688 -692 155 -143 427 -365 670
-545 144 -107 510 -358 581 -398 17 -10 39 -23 48 -28 89 -56 312 -185 319
-185 6 0 12 -3 14 -8 2 -4 37 -25 78 -46 41 -22 92 -50 112 -63 21 -13 38 -20
38 -17 0 4 6 2 13 -4 15 -12 216 -113 351 -176 143 -67 362 -161 511 -218 72
-27 159 -61 195 -75 61 -24 437 -151 470 -158 8 -2 55 -16 105 -30 160 -48
463 -125 555 -141 14 -3 33 -7 42 -10 9 -3 25 -6 35 -8 10 -2 52 -11 93 -20
41 -8 91 -18 110 -21 19 -3 82 -14 140 -24 172 -31 277 -46 440 -65 30 -4 71
-9 90 -11 19 -3 60 -7 90 -10 30 -2 100 -9 155 -14 195 -19 394 -26 775 -26
403 1 547 6 795 30 28 2 79 7 115 10 36 4 76 8 90 10 14 2 54 7 90 10 36 4 72
9 81 10 9 2 40 6 70 10 30 3 95 13 144 21 50 8 105 17 124 20 74 10 483 94
601 124 69 17 136 33 150 36 14 2 36 9 50 14 14 5 59 18 100 29 390 101 931
300 1375 506 96 45 380 187 450 225 122 67 167 92 280 157 346 200 736 466
1070 732 101 80 283 231 321 266 6 5 44 39 85 75 165 146 437 413 594 584 50
54 101 110 115 125 21 22 109 125 237 276 54 64 234 296 318 409 91 123 315
450 315 459 0 3 21 36 46 73 25 36 48 74 51 83 3 9 12 23 19 31 13 16 175 298
241 420 76 141 283 561 283 575 0 3 13 33 29 67 16 35 48 110 71 168 23 58 50
123 60 145 9 22 34 87 54 145 21 58 42 114 47 125 15 34 140 417 154 475 2 8
20 71 40 140 19 69 37 134 39 145 2 11 14 56 25 100 12 44 24 94 27 110 3 17
11 55 19 85 24 98 67 317 90 460 3 19 10 60 15 90 5 30 12 75 15 100 3 25 8
56 10 70 13 87 38 301 51 440 6 74 8 98 20 270 11 153 11 938 1 1075 -4 55
-10 127 -12 160 -4 63 -14 166 -20 225 -2 19 -7 62 -10 95 -3 33 -8 75 -11 93
-11 84 -13 100 -19 147 -6 49 -31 207 -40 255 -2 14 -11 63 -19 110 -8 47 -22
118 -30 157 -9 40 -18 86 -21 101 -11 62 -86 374 -121 497 -19 72 -37 137 -39
145 -19 80 -151 475 -210 630 -81 212 -111 286 -183 450 -92 210 -236 509
-314 649 -17 31 -35 63 -39 71 -19 36 -127 224 -187 325 -100 168 -349 542
-439 660 -5 6 -40 53 -78 105 -39 52 -77 104 -87 115 -9 11 -58 72 -109 135
-266 329 -562 647 -863 925 -59 55 -113 105 -120 111 -31 29 -198 174 -241
209 -27 22 -65 54 -85 70 -19 17 -66 55 -105 85 -38 30 -72 57 -75 60 -3 3
-30 24 -60 45 -30 22 -62 46 -70 52 -101 85 -543 381 -755 506 -93 55 -181
107 -195 116 -14 8 -43 25 -65 36 -22 12 -85 45 -140 75 -161 86 -536 270
-551 270 -2 0 -27 11 -56 24 -116 52 -151 67 -191 82 -23 9 -55 22 -72 29
-161 71 -796 289 -835 288 -3 -1 -15 3 -27 8 -20 7 -186 53 -235 65 -10 2 -26
6 -35 9 -43 11 -150 37 -168 40 -11 3 -50 11 -87 20 -91 20 -196 43 -233 50
-16 3 -41 7 -55 10 -14 3 -50 9 -80 15 -30 5 -68 12 -85 15 -48 9 -286 44
-335 50 -25 2 -61 7 -80 10 -19 2 -57 7 -85 10 -27 3 -70 7 -95 10 -87 10
-136 14 -230 20 -52 3 -113 8 -135 11 -46 6 -941 15 -946 9z"/>
</g>
</svg>
